<?xml version="1.0" encoding="utf-8" standalone="no"?>
<!DOCTYPE svg PUBLIC "-//W3C//DTD SVG 1.1//EN"
  "http://www.w3.org/Graphics/SVG/1.1/DTD/svg11.dtd">
<!-- Created with matplotlib (https://matplotlib.org/) -->
<svg height="345.6pt" version="1.1" viewBox="0 0 460.8 345.6" width="460.8pt" xmlns="http://www.w3.org/2000/svg" xmlns:xlink="http://www.w3.org/1999/xlink">
 <defs>
  <style type="text/css">
*{stroke-linecap:butt;stroke-linejoin:round;}
  </style>
 </defs>
 <g id="figure_1">
  <g id="patch_1">
   <path d="M 0 345.6 
L 460.8 345.6 
L 460.8 0 
L 0 0 
z
"/>
  </g>
  <g id="axes_1">
   <g id="patch_2">
    <path d="M 57.6 307.584 
L 414.72 307.584 
L 414.72 41.472 
L 57.6 41.472 
z
"/>
   </g>
   <g id="line2d_1">
    <path clip-path="url(#pb95bef2b0f)" d="M 73.832727 80.838342 
L 74.112843 83.965208 
L 74.953192 84.392847 
L 75.233308 82.615595 
L 75.513424 83.058927 
L 75.79354 83.808276 
L 76.073656 83.117776 
L 76.914004 81.493532 
L 77.19412 81.634771 
L 77.474236 80.803032 
L 77.754352 81.297368 
L 78.034469 80.708873 
L 79.154933 81.324831 
L 79.435049 81.607308 
L 79.715165 81.611231 
L 79.995281 82.796066 
L 80.835629 83.647421 
L 81.115746 85.212816 
L 81.395862 85.412904 
L 81.675978 86.185793 
L 81.956094 87.566793 
L 82.796442 88.300449 
L 83.076558 87.704108 
L 83.356674 87.915966 
L 83.63679 88.87325 
L 83.916906 88.484844 
L 84.757255 87.868887 
L 85.037371 91.24292 
L 85.317487 92.898551 
L 85.597603 92.317903 
L 85.877719 93.487045 
L 86.718067 94.460022 
L 86.998183 95.758633 
L 87.278299 95.252528 
L 87.558416 95.946951 
L 87.838532 95.507542 
L 88.67888 94.538488 
L 88.958996 95.378073 
L 89.239112 96.751227 
L 89.519228 97.182789 
L 89.799344 98.010604 
L 90.639693 99.991868 
L 90.919809 99.513226 
L 91.199925 96.590372 
L 91.480041 100.078181 
L 91.760157 109.121376 
L 92.600505 114.994548 
L 92.880621 112.797503 
L 93.160737 114.433517 
L 93.440853 117.309292 
L 93.720969 116.265696 
L 94.561318 118.380352 
L 94.841434 117.92525 
L 95.12155 116.669795 
L 95.401666 113.935259 
L 95.681782 107.913001 
L 96.52213 109.168455 
L 96.802246 107.657987 
L 97.082363 107.32843 
L 97.362479 113.276145 
L 97.642595 112.875969 
L 98.482943 114.001955 
L 98.763059 109.164532 
L 99.043175 109.148839 
L 99.323291 107.202885 
L 99.603407 107.932617 
L 100.443756 106.245601 
L 100.723872 107.195038 
L 101.003988 110.035504 
L 101.56422 111.851989 
L 102.404568 112.503256 
L 102.684684 112.868123 
L 102.9648 112.075617 
L 103.244916 111.855912 
L 103.525033 112.248242 
L 104.365381 110.635768 
L 104.645497 108.729046 
L 104.925613 108.160169 
L 105.205729 109.513705 
L 105.485845 108.815359 
L 106.326193 108.344563 
L 106.60631 111.577358 
L 106.886426 112.004998 
L 107.166542 110.706387 
L 107.446658 112.122696 
L 108.287006 114.060804 
L 108.567122 113.562546 
L 109.127354 115.190713 
L 110.527935 117.097435 
L 110.808051 117.152361 
L 111.088167 118.996309 
L 111.368283 117.109204 
L 112.208631 121.001113 
L 112.488747 117.780088 
L 112.768863 117.391682 
L 113.04898 115.445727 
L 113.329096 117.525074 
L 114.169444 117.999792 
L 114.44956 117.403452 
L 114.729676 118.125338 
L 115.009792 118.105721 
L 115.289908 119.92613 
L 116.410373 121.467985 
L 116.690489 118.87861 
L 116.970605 117.552537 
L 117.250721 115.339798 
L 118.091069 112.373787 
L 118.371185 110.961401 
L 118.651301 115.716435 
L 118.931417 115.261332 
L 119.211533 116.147997 
L 120.051882 118.219497 
L 120.331998 116.760031 
L 120.612114 122.276184 
L 120.89223 124.198599 
L 121.172346 121.648457 
L 122.012694 118.380352 
L 122.29281 119.404332 
L 122.572927 116.634486 
L 122.853043 115.2221 
L 123.133159 114.994548 
L 124.253623 118.066488 
L 124.533739 119.314096 
L 124.813855 119.114008 
L 125.093971 119.133625 
L 126.214436 116.552097 
L 126.494552 117.564307 
L 126.774668 115.579119 
L 127.054784 114.394284 
L 127.895132 115.226023 
L 128.175248 114.468827 
L 128.455364 114.123577 
L 128.73548 114.84154 
L 129.015597 114.406054 
L 129.855945 115.547733 
L 130.416177 112.620955 
L 130.696293 112.083464 
L 130.976409 111.228185 
L 131.816757 110.125739 
L 132.096873 111.545972 
L 132.37699 110.36506 
L 132.657106 111.812756 
L 132.937222 112.107003 
L 133.77757 112.43656 
L 134.057686 111.542049 
L 134.617918 111.797063 
L 135.738383 112.648418 
L 136.018499 111.922608 
L 136.298615 112.267858 
L 136.578731 112.291398 
L 136.858847 112.107003 
L 137.699195 114.166733 
L 137.979311 115.453574 
L 138.259427 115.708588 
L 138.539543 117.489764 
L 138.81966 116.818881 
L 139.660008 117.281829 
L 139.940124 117.56823 
L 140.500356 116.583483 
L 140.780472 114.052958 
L 141.62082 114.825847 
L 141.900937 116.563866 
L 142.461169 121.593531 
L 142.741285 126.14063 
L 143.581633 129.169413 
L 143.861749 127.294078 
L 144.141865 127.698178 
L 144.421981 127.568709 
L 144.702097 127.78449 
L 145.542446 128.682925 
L 145.822562 130.21301 
L 146.102678 131.119291 
L 146.382794 130.52295 
L 146.66291 130.930973 
L 147.503258 130.146314 
L 147.783374 130.84466 
L 148.06349 132.21389 
L 148.343607 131.205603 
L 149.464071 132.119731 
L 149.744187 132.935776 
L 150.024303 135.301523 
L 150.304419 135.30937 
L 150.584535 136.262731 
L 151.424884 141.692571 
L 151.705 141.908352 
L 151.985116 143.795457 
L 152.265232 143.163807 
L 152.545348 145.831647 
L 153.665812 150.253201 
L 153.945928 154.462896 
L 154.226044 154.423663 
L 154.50616 151.426266 
L 155.626625 156.471623 
L 155.906741 151.151635 
L 156.186857 153.799859 
L 156.466973 152.305084 
L 157.307321 152.403166 
L 157.867554 149.284147 
L 158.427786 151.441959 
L 159.268134 153.952868 
L 160.108482 155.13378 
L 160.388598 158.091944 
L 161.228947 160.779401 
L 161.509063 159.955509 
L 161.789179 156.314691 
L 162.069295 156.875723 
L 162.349411 155.737967 
L 163.469875 157.487757 
L 163.749991 155.843896 
L 164.030107 157.421061 
L 164.310224 157.691768 
L 165.150572 156.561859 
L 165.430688 155.945902 
L 165.710804 158.723595 
L 165.99092 159.520023 
L 166.271036 159.637722 
L 167.111384 158.990379 
L 167.391501 163.054912 
L 167.951733 164.639923 
L 168.231849 160.112441 
L 169.072197 157.542683 
L 169.352313 157.636842 
L 169.632429 157.966399 
L 169.912545 156.620708 
L 170.192661 154.368737 
L 171.03301 155.879206 
L 171.313126 158.853063 
L 171.593242 158.111561 
L 171.873358 158.280262 
L 172.153474 156.16953 
L 172.993822 155.737967 
L 173.273938 155.863513 
L 173.554054 153.552692 
L 173.834171 152.913195 
L 174.114287 155.137703 
L 174.954635 152.893578 
L 175.234751 153.540922 
L 175.514867 153.325141 
L 175.794983 151.320337 
L 176.075099 151.32426 
L 176.915447 148.974206 
L 177.195564 151.159482 
L 177.47568 152.332547 
L 177.755796 152.340394 
L 178.035912 152.7288 
L 178.87626 154.639444 
L 179.436492 153.678237 
L 179.716608 153.77632 
L 179.996724 154.639444 
L 181.117189 154.113723 
L 181.397305 157.1582 
L 181.677421 157.362211 
L 182.797885 162.99214 
L 183.078001 163.753259 
L 183.358117 160.347839 
L 183.638234 160.198753 
L 183.91835 159.249316 
L 184.758698 160.657779 
L 185.31893 163.839571 
L 185.599046 163.631637 
L 185.879162 165.197031 
L 186.999627 164.639923 
L 187.279743 161.524827 
L 187.559859 162.94506 
L 187.839975 165.628594 
L 188.680323 166.499565 
L 188.960439 163.486475 
L 189.240555 163.372699 
L 189.520671 164.173051 
L 189.800788 164.26721 
L 190.641136 163.349159 
L 191.481484 158.166487 
L 191.7616 157.656458 
L 192.601948 161.132498 
L 192.882064 160.457691 
L 193.162181 162.584117 
L 193.442297 160.426305 
L 193.722413 174.824797 
L 194.562761 178.25768 
L 194.842877 177.575027 
L 195.122993 180.921598 
L 195.403109 179.987853 
L 196.80369 190.313966 
L 197.083806 190.431665 
L 197.644038 194.649207 
L 198.484386 196.453923 
L 198.764502 194.441272 
L 199.044618 190.22373 
L 199.324734 194.912068 
L 199.604851 194.637437 
L 200.445199 197.215042 
L 200.725315 195.579028 
L 201.285547 199.757337 
L 201.565663 198.486189 
L 202.406011 202.076004 
L 202.966244 207.372453 
L 203.526476 209.632271 
L 204.366824 207.615697 
L 204.64694 199.792647 
L 204.927056 200.330138 
L 205.207172 203.931723 
L 205.487288 205.348032 
L 206.327637 200.698928 
L 206.607753 200.184976 
L 206.887869 200.059431 
L 207.167985 202.582109 
L 207.448101 202.013232 
L 208.288449 203.351075 
L 208.568565 205.265643 
L 208.848681 205.842368 
L 209.128798 207.25083 
L 209.408914 210.232535 
L 210.249262 208.055106 
L 210.529378 210.07168 
L 210.809494 208.733836 
L 211.08961 210.974037 
L 211.369726 210.538552 
L 212.490191 208.070799 
L 212.770307 208.875075 
L 213.330539 204.233817 
L 214.451003 212.225569 
L 214.731119 216.152787 
L 215.011235 218.506764 
L 215.291351 224.164155 
L 216.1317 224.650644 
L 216.691932 226.506362 
L 216.972048 223.367726 
L 217.252164 224.39563 
L 218.372628 224.733033 
L 218.652745 216.023318 
L 218.932861 212.704211 
L 219.212977 198.191942 
L 220.053325 209.192862 
L 220.333441 215.285739 
L 220.613557 211.350674 
L 220.893673 211.848932 
L 221.173789 211.542915 
L 222.014138 208.926077 
L 222.294254 211.217282 
L 222.57437 199.102147 
L 222.854486 196.850175 
L 223.134602 191.165321 
L 223.97495 192.558091 
L 224.255066 185.81787 
L 224.535182 186.272972 
L 224.815298 182.228055 
L 225.095415 183.7346 
L 225.935763 177.100308 
L 226.215879 176.166564 
L 226.495995 175.797774 
L 226.776111 185.245069 
L 227.056227 186.143503 
L 228.176692 185.296072 
L 228.456808 184.864509 
L 228.736924 189.800014 
L 229.01704 189.537154 
L 229.857388 194.62959 
L 230.137504 183.738524 
L 230.41762 184.593802 
L 230.697736 189.164441 
L 230.977852 189.843171 
L 232.098317 184.456487 
L 232.658549 176.041019 
L 232.938665 173.883206 
L 233.779013 173.710581 
L 234.059129 179.242427 
L 234.619362 174.381465 
L 234.899478 174.781641 
L 235.739826 178.077209 
L 236.019942 174.832644 
L 236.300058 174.950343 
L 236.580174 175.605533 
L 236.86029 184.986131 
L 237.700638 186.512293 
L 237.980755 189.458688 
L 238.260871 196.434306 
L 238.540987 193.868471 
L 238.821103 194.480505 
L 239.661451 194.362806 
L 239.941567 200.10651 
L 240.501799 202.790044 
L 240.781915 200.82055 
L 241.622264 204.830157 
L 241.90238 202.193703 
L 242.182496 201.915149 
L 242.462612 199.251232 
L 243.583076 201.079487 
L 243.863192 200.067277 
L 244.423425 204.288743 
L 244.703541 212.959225 
L 245.543889 214.293145 
L 245.824005 209.059469 
L 246.104121 208.592597 
L 246.384237 206.26216 
L 246.664353 205.442191 
L 247.784818 196.363687 
L 248.064934 196.116519 
L 248.34505 196.34407 
L 248.625166 196.167522 
L 249.465514 196.35584 
L 249.74563 201.8563 
L 250.025746 199.572942 
L 250.585979 188.254236 
L 251.426327 189.066358 
L 251.706443 187.143944 
L 251.986559 188.399398 
L 252.266675 187.022321 
L 252.546791 186.641762 
L 253.387139 187.006628 
L 254.227488 191.730275 
L 254.507604 191.086855 
L 255.628068 187.395034 
L 255.908184 187.347955 
L 256.1883 191.585114 
L 256.468416 190.337506 
L 257.308765 188.375858 
L 257.588881 194.476582 
L 257.868997 193.111275 
L 258.149113 195.775193 
L 258.429229 193.134815 
L 259.269577 191.161398 
L 259.549693 193.115199 
L 259.829809 192.279537 
L 260.109925 194.872835 
L 260.390042 194.755136 
L 261.510506 193.370213 
L 261.790622 199.239462 
L 262.070738 198.384184 
L 262.350854 200.310522 
L 263.191202 200.059431 
L 263.471319 199.314005 
L 263.751435 200.800934 
L 264.031551 205.391189 
L 264.311667 205.98753 
L 265.152015 207.505845 
L 265.712247 206.823191 
L 265.992363 207.501921 
L 266.272479 206.426939 
L 267.112828 205.544197 
L 267.392944 208.039413 
L 268.233292 199.776954 
L 269.07364 201.49928 
L 269.633872 198.011471 
L 269.913989 193.350596 
L 270.194105 194.523661 
L 271.034453 194.833602 
L 271.314569 194.229414 
L 271.874801 191.498801 
L 272.154917 193.742926 
L 272.995266 193.146585 
L 273.555498 185.547163 
L 273.835614 188.748571 
L 274.11573 188.144384 
L 274.956078 189.752935 
L 275.236194 190.94954 
L 276.076542 186.045421 
L 276.916891 186.410287 
L 277.197007 190.93777 
L 277.477123 193.585994 
L 278.037355 191.875437 
L 278.877703 189.497921 
L 279.157819 189.886327 
L 279.437936 187.979605 
L 279.718052 188.097304 
L 279.998168 187.912909 
L 280.838516 190.929923 
L 281.118632 190.145264 
L 281.398748 190.851457 
L 281.678864 189.980486 
L 281.95898 190.007949 
L 283.079445 192.267767 
L 283.359561 190.612136 
L 283.639677 189.964793 
L 283.919793 189.713702 
L 284.760141 192.161838 
L 285.040257 195.225931 
L 285.320373 200.981405 
L 285.600489 199.965272 
L 285.880606 202.280016 
L 286.720954 204.167121 
L 287.281186 197.226812 
L 287.561302 201.091257 
L 287.841418 199.886806 
L 288.681766 199.965272 
L 288.961883 201.099104 
L 289.241999 199.549402 
L 289.522115 199.80834 
L 289.802231 199.149226 
L 290.642579 198.968755 
L 290.922695 199.988811 
L 291.202811 204.563373 
L 291.482927 203.037212 
L 291.763043 206.446555 
L 292.603392 209.781356 
L 292.883508 208.859381 
L 293.163624 208.800532 
L 293.44374 209.169322 
L 293.723856 209.114396 
L 294.84432 206.501481 
L 295.124436 205.979683 
L 295.404553 208.627907 
L 295.684669 221.814102 
L 296.525017 230.096177 
L 296.805133 227.165476 
L 297.085249 232.379535 
L 297.365365 231.791041 
L 297.645481 227.906979 
L 298.485829 228.44447 
L 298.765946 228.373851 
L 299.046062 224.886042 
L 299.606294 226.573058 
L 300.446642 228.593555 
L 300.726758 226.875152 
L 301.006874 227.828513 
L 301.28699 226.898692 
L 301.567106 227.259635 
L 302.407455 230.19426 
L 302.687571 233.438825 
L 302.967687 234.470651 
L 303.527919 237.162032 
L 304.368267 235.694719 
L 304.648383 241.42273 
L 305.488732 239.598398 
L 306.32908 231.653725 
L 306.609196 233.517291 
L 306.889312 231.614492 
L 307.169428 231.677265 
L 307.449544 230.104024 
L 308.289893 231.692958 
L 308.850125 233.20735 
L 309.130241 230.82591 
L 309.410357 231.402635 
L 310.250705 231.332015 
L 310.810937 229.393908 
L 311.091053 230.621899 
L 311.37117 229.907859 
L 312.211518 223.042093 
L 312.491634 225.329374 
L 313.051866 220.452718 
L 313.331982 220.209474 
L 314.452446 220.974516 
L 314.732563 225.093976 
L 315.012679 222.947934 
L 315.292795 222.131888 
L 316.693375 224.921351 
L 316.973491 231.069154 
L 317.253607 232.611009 
L 318.093956 231.1947 
L 318.374072 231.947973 
L 318.654188 233.501597 
L 318.934304 237.526898 
L 319.21442 239.598398 
L 320.334884 239.315921 
L 320.895116 232.8621 
L 321.175233 233.615373 
L 322.295697 229.417447 
L 322.575813 237.271884 
L 322.855929 232.964106 
L 323.136045 236.00466 
L 323.976393 234.682509 
L 324.25651 235.408319 
L 324.536626 238.225245 
L 324.816742 230.476737 
L 325.096858 230.378655 
L 325.937206 224.75265 
L 326.217322 226.447513 
L 326.497438 225.870789 
L 326.777554 226.270965 
L 327.05767 222.685073 
L 327.898019 221.272687 
L 328.178135 221.590474 
L 328.458251 224.270084 
L 328.738367 222.520295 
L 329.018483 225.843326 
L 330.138947 226.690757 
L 330.419063 228.165916 
L 330.69918 228.161993 
L 330.979296 226.11011 
L 331.819644 223.877755 
L 332.09976 217.53771 
L 332.379876 217.804494 
L 332.659992 217.325852 
L 332.940108 213.579105 
L 333.780457 214.469693 
L 334.060573 220.982363 
L 334.340689 220.233014 
L 334.620805 219.872071 
L 334.900921 219.181571 
L 335.741269 219.88384 
L 336.021385 215.285739 
L 336.301501 217.235616 
L 336.581617 216.5255 
L 336.861733 214.43046 
L 337.702082 216.933523 
L 337.982198 216.16848 
L 338.262314 220.590034 
L 338.54243 222.743922 
L 338.822546 222.661533 
L 339.662894 223.905218 
L 340.503243 222.304513 
L 340.783359 221.221684 
L 341.623707 221.366846 
L 341.903823 226.886922 
L 342.183939 226.267041 
L 342.464055 226.459283 
L 343.58452 225.164595 
L 344.144752 223.720823 
L 344.424868 224.842885 
L 344.704984 224.411323 
L 345.545332 227.542112 
L 345.825448 226.965388 
L 346.105564 228.224766 
L 346.38568 226.514209 
L 346.665797 230.763137 
L 347.786261 228.821106 
L 348.066377 229.001578 
L 348.346493 230.253109 
L 348.626609 229.401754 
L 350.02719 224.211235 
L 350.307306 227.13409 
L 350.587422 226.306274 
L 351.42777 224.795806 
L 351.707886 224.615334 
L 351.988002 225.572618 
L 352.268118 222.520295 
L 352.548234 224.587871 
L 353.388583 222.641917 
L 353.668699 221.158911 
L 353.948815 226.890845 
L 354.228931 226.243502 
L 354.509047 225.992411 
L 355.349395 226.102263 
L 355.629511 228.165916 
L 355.909627 227.424413 
L 356.189744 227.565652 
L 356.46986 231.17116 
L 357.590324 232.579623 
L 357.87044 237.087489 
L 358.150556 236.816782 
L 359.27102 240.41052 
L 359.551137 245.028238 
L 359.831253 244.796764 
L 360.111369 243.545233 
L 360.391485 243.713934 
L 361.231833 242.085767 
L 361.511949 239.508162 
L 361.792065 239.692557 
L 362.072181 238.750966 
L 363.192646 243.600159 
L 363.472762 243.250985 
L 363.752878 241.548275 
L 364.032994 243.17252 
L 364.31311 247.437141 
L 365.153458 248.394425 
L 365.433574 249.508641 
L 365.71369 247.951093 
L 365.993807 247.448911 
L 366.273923 246.54263 
L 367.114271 249.555721 
L 367.954619 253.969427 
L 368.234735 253.094533 
L 369.915432 255.421047 
L 370.195548 258.100657 
L 371.035896 258.426291 
L 371.316012 259.214873 
L 371.596128 257.057061 
L 371.876244 256.700041 
L 372.15636 245.53042 
L 372.996709 242.544792 
L 373.276825 243.129363 
L 373.556941 241.465886 
L 373.837057 240.775386 
L 374.117173 242.301548 
L 374.957521 243.957179 
L 375.237637 241.560045 
L 375.517754 242.713494 
L 375.79787 241.956298 
L 376.077986 238.813739 
L 376.918334 241.560045 
L 377.19845 243.921869 
L 377.478566 247.751005 
L 377.758682 243.415764 
L 378.038798 243.81594 
L 378.879147 243.717858 
L 379.159263 241.010784 
L 379.439379 236.675543 
L 379.719495 234.309796 
L 379.999611 237.652443 
L 380.839959 236.820705 
L 381.400191 242.638951 
L 381.680307 242.419247 
L 381.960424 243.521693 
L 382.800772 242.839039 
L 383.080888 240.147659 
L 383.361004 242.689954 
L 383.64112 242.109307 
L 383.921236 243.619775 
L 385.321817 248.54351 
L 385.882049 245.228326 
L 386.722397 243.317681 
L 387.002513 246.005139 
L 387.282629 246.523014 
L 387.562745 247.358675 
L 387.842861 248.916223 
L 388.68321 247.562687 
L 389.523558 258.363518 
L 389.803674 261.215753 
L 390.644022 264.323003 
L 390.924138 264.707486 
L 391.484371 264.118992 
L 391.764487 264.028756 
L 392.604835 270.023551 
L 392.884951 270.745437 
L 393.165067 270.600275 
L 393.445183 268.642551 
L 393.725299 274.53534 
L 394.845764 282.825262 
L 395.12588 286.830946 
L 395.405996 285.500949 
L 395.686112 291.5389 
L 396.806576 283.146972 
L 397.086692 290.004892 
L 397.646924 294.410752 
L 398.487273 296.780423 
L 398.487273 296.780423 
" style="fill:none;stroke:#ffffff;stroke-linecap:square;stroke-width:1.5;"/>
   </g>
   <g id="mpl_toolkits.axisartist.axis_artist_1">
    <g id="patch_3">
     <path d="M 57.6 307.584 
L 414.72 307.584 
L 423.601966 307.584 
" style="fill:none;stroke:#ffffff;stroke-linecap:round;"/>
     <path d="M 419.601966 305.584 
L 423.601966 307.584 
L 419.601966 309.584 
L 419.601966 305.584 
z
" style="fill:#8dd3c7;stroke:#ffffff;stroke-linecap:round;"/>
    </g>
    <g id="text_1">
     <!-- time -->
     <defs>
      <path d="M 18.3125 70.21875 
L 18.3125 54.6875 
L 36.8125 54.6875 
L 36.8125 47.703125 
L 18.3125 47.703125 
L 18.3125 18.015625 
Q 18.3125 11.328125 20.140625 9.421875 
Q 21.96875 7.515625 27.59375 7.515625 
L 36.8125 7.515625 
L 36.8125 0 
L 27.59375 0 
Q 17.1875 0 13.234375 3.875 
Q 9.28125 7.765625 9.28125 18.015625 
L 9.28125 47.703125 
L 2.6875 47.703125 
L 2.6875 54.6875 
L 9.28125 54.6875 
L 9.28125 70.21875 
z
" id="DejaVuSans-116"/>
      <path d="M 9.421875 54.6875 
L 18.40625 54.6875 
L 18.40625 0 
L 9.421875 0 
z
M 9.421875 75.984375 
L 18.40625 75.984375 
L 18.40625 64.59375 
L 9.421875 64.59375 
z
" id="DejaVuSans-105"/>
      <path d="M 52 44.1875 
Q 55.375 50.25 60.0625 53.125 
Q 64.75 56 71.09375 56 
Q 79.640625 56 84.28125 50.015625 
Q 88.921875 44.046875 88.921875 33.015625 
L 88.921875 0 
L 79.890625 0 
L 79.890625 32.71875 
Q 79.890625 40.578125 77.09375 44.375 
Q 74.3125 48.1875 68.609375 48.1875 
Q 61.625 48.1875 57.5625 43.546875 
Q 53.515625 38.921875 53.515625 30.90625 
L 53.515625 0 
L 44.484375 0 
L 44.484375 32.71875 
Q 44.484375 40.625 41.703125 44.40625 
Q 38.921875 48.1875 33.109375 48.1875 
Q 26.21875 48.1875 22.15625 43.53125 
Q 18.109375 38.875 18.109375 30.90625 
L 18.109375 0 
L 9.078125 0 
L 9.078125 54.6875 
L 18.109375 54.6875 
L 18.109375 46.1875 
Q 21.1875 51.21875 25.484375 53.609375 
Q 29.78125 56 35.6875 56 
Q 41.65625 56 45.828125 52.96875 
Q 50 49.953125 52 44.1875 
z
" id="DejaVuSans-109"/>
      <path d="M 56.203125 29.59375 
L 56.203125 25.203125 
L 14.890625 25.203125 
Q 15.484375 15.921875 20.484375 11.0625 
Q 25.484375 6.203125 34.421875 6.203125 
Q 39.59375 6.203125 44.453125 7.46875 
Q 49.3125 8.734375 54.109375 11.28125 
L 54.109375 2.78125 
Q 49.265625 0.734375 44.1875 -0.34375 
Q 39.109375 -1.421875 33.890625 -1.421875 
Q 20.796875 -1.421875 13.15625 6.1875 
Q 5.515625 13.8125 5.515625 26.8125 
Q 5.515625 40.234375 12.765625 48.109375 
Q 20.015625 56 32.328125 56 
Q 43.359375 56 49.78125 48.890625 
Q 56.203125 41.796875 56.203125 29.59375 
z
M 47.21875 32.234375 
Q 47.125 39.59375 43.09375 43.984375 
Q 39.0625 48.390625 32.421875 48.390625 
Q 24.90625 48.390625 20.390625 44.140625 
Q 15.875 39.890625 15.1875 32.171875 
z
" id="DejaVuSans-101"/>
     </defs>
     <g style="fill:#ffffff;" transform="translate(224.863906 323.682437)scale(0.1 -0.1)">
      <use xlink:href="#DejaVuSans-116"/>
      <use x="39.208984" xlink:href="#DejaVuSans-105"/>
      <use x="66.992188" xlink:href="#DejaVuSans-109"/>
      <use x="164.404297" xlink:href="#DejaVuSans-101"/>
     </g>
    </g>
   </g>
   <g id="mpl_toolkits.axisartist.axis_artist_2">
    <g id="patch_4">
     <path d="M 57.6 307.584 
L 57.6 41.472 
L 57.6 32.590034 
" style="fill:none;stroke:#ffffff;stroke-linecap:round;"/>
     <path d="M 55.6 36.590034 
L 57.6 32.590034 
L 59.6 36.590034 
L 55.6 36.590034 
z
" style="fill:#8dd3c7;stroke:#ffffff;stroke-linecap:round;"/>
    </g>
    <g id="text_2">
     <!-- profits -->
     <defs>
      <path d="M 18.109375 8.203125 
L 18.109375 -20.796875 
L 9.078125 -20.796875 
L 9.078125 54.6875 
L 18.109375 54.6875 
L 18.109375 46.390625 
Q 20.953125 51.265625 25.265625 53.625 
Q 29.59375 56 35.59375 56 
Q 45.5625 56 51.78125 48.09375 
Q 58.015625 40.1875 58.015625 27.296875 
Q 58.015625 14.40625 51.78125 6.484375 
Q 45.5625 -1.421875 35.59375 -1.421875 
Q 29.59375 -1.421875 25.265625 0.953125 
Q 20.953125 3.328125 18.109375 8.203125 
z
M 48.6875 27.296875 
Q 48.6875 37.203125 44.609375 42.84375 
Q 40.53125 48.484375 33.40625 48.484375 
Q 26.265625 48.484375 22.1875 42.84375 
Q 18.109375 37.203125 18.109375 27.296875 
Q 18.109375 17.390625 22.1875 11.75 
Q 26.265625 6.109375 33.40625 6.109375 
Q 40.53125 6.109375 44.609375 11.75 
Q 48.6875 17.390625 48.6875 27.296875 
z
" id="DejaVuSans-112"/>
      <path d="M 41.109375 46.296875 
Q 39.59375 47.171875 37.8125 47.578125 
Q 36.03125 48 33.890625 48 
Q 26.265625 48 22.1875 43.046875 
Q 18.109375 38.09375 18.109375 28.8125 
L 18.109375 0 
L 9.078125 0 
L 9.078125 54.6875 
L 18.109375 54.6875 
L 18.109375 46.1875 
Q 20.953125 51.171875 25.484375 53.578125 
Q 30.03125 56 36.53125 56 
Q 37.453125 56 38.578125 55.875 
Q 39.703125 55.765625 41.0625 55.515625 
z
" id="DejaVuSans-114"/>
      <path d="M 30.609375 48.390625 
Q 23.390625 48.390625 19.1875 42.75 
Q 14.984375 37.109375 14.984375 27.296875 
Q 14.984375 17.484375 19.15625 11.84375 
Q 23.34375 6.203125 30.609375 6.203125 
Q 37.796875 6.203125 41.984375 11.859375 
Q 46.1875 17.53125 46.1875 27.296875 
Q 46.1875 37.015625 41.984375 42.703125 
Q 37.796875 48.390625 30.609375 48.390625 
z
M 30.609375 56 
Q 42.328125 56 49.015625 48.375 
Q 55.71875 40.765625 55.71875 27.296875 
Q 55.71875 13.875 49.015625 6.21875 
Q 42.328125 -1.421875 30.609375 -1.421875 
Q 18.84375 -1.421875 12.171875 6.21875 
Q 5.515625 13.875 5.515625 27.296875 
Q 5.515625 40.765625 12.171875 48.375 
Q 18.84375 56 30.609375 56 
z
" id="DejaVuSans-111"/>
      <path d="M 37.109375 75.984375 
L 37.109375 68.5 
L 28.515625 68.5 
Q 23.6875 68.5 21.796875 66.546875 
Q 19.921875 64.59375 19.921875 59.515625 
L 19.921875 54.6875 
L 34.71875 54.6875 
L 34.71875 47.703125 
L 19.921875 47.703125 
L 19.921875 0 
L 10.890625 0 
L 10.890625 47.703125 
L 2.296875 47.703125 
L 2.296875 54.6875 
L 10.890625 54.6875 
L 10.890625 58.5 
Q 10.890625 67.625 15.140625 71.796875 
Q 19.390625 75.984375 28.609375 75.984375 
z
" id="DejaVuSans-102"/>
      <path d="M 44.28125 53.078125 
L 44.28125 44.578125 
Q 40.484375 46.53125 36.375 47.5 
Q 32.28125 48.484375 27.875 48.484375 
Q 21.1875 48.484375 17.84375 46.4375 
Q 14.5 44.390625 14.5 40.28125 
Q 14.5 37.15625 16.890625 35.375 
Q 19.28125 33.59375 26.515625 31.984375 
L 29.59375 31.296875 
Q 39.15625 29.25 43.1875 25.515625 
Q 47.21875 21.78125 47.21875 15.09375 
Q 47.21875 7.46875 41.1875 3.015625 
Q 35.15625 -1.421875 24.609375 -1.421875 
Q 20.21875 -1.421875 15.453125 -0.5625 
Q 10.6875 0.296875 5.421875 2 
L 5.421875 11.28125 
Q 10.40625 8.6875 15.234375 7.390625 
Q 20.0625 6.109375 24.8125 6.109375 
Q 31.15625 6.109375 34.5625 8.28125 
Q 37.984375 10.453125 37.984375 14.40625 
Q 37.984375 18.0625 35.515625 20.015625 
Q 33.0625 21.96875 24.703125 23.78125 
L 21.578125 24.515625 
Q 13.234375 26.265625 9.515625 29.90625 
Q 5.8125 33.546875 5.8125 39.890625 
Q 5.8125 47.609375 11.28125 51.796875 
Q 16.75 56 26.8125 56 
Q 31.78125 56 36.171875 55.265625 
Q 40.578125 54.546875 44.28125 53.078125 
z
" id="DejaVuSans-115"/>
     </defs>
     <g style="fill:#ffffff;" transform="translate(47.020313 190.529562)rotate(-90)scale(0.1 -0.1)">
      <use xlink:href="#DejaVuSans-112"/>
      <use x="63.476562" xlink:href="#DejaVuSans-114"/>
      <use x="104.558594" xlink:href="#DejaVuSans-111"/>
      <use x="165.740234" xlink:href="#DejaVuSans-102"/>
      <use x="200.945312" xlink:href="#DejaVuSans-105"/>
      <use x="228.728516" xlink:href="#DejaVuSans-116"/>
      <use x="267.9375" xlink:href="#DejaVuSans-115"/>
     </g>
    </g>
   </g>
  </g>
 </g>
 <defs>
  <clipPath id="pb95bef2b0f">
   <rect height="266.112" width="357.12" x="57.6" y="41.472"/>
  </clipPath>
 </defs>
</svg>
