<?xml version="1.0" encoding="utf-8" standalone="no"?>
<!DOCTYPE svg PUBLIC "-//W3C//DTD SVG 1.1//EN"
  "http://www.w3.org/Graphics/SVG/1.1/DTD/svg11.dtd">
<!-- Created with matplotlib (https://matplotlib.org/) -->
<svg height="345.6pt" version="1.1" viewBox="0 0 460.8 345.6" width="460.8pt" xmlns="http://www.w3.org/2000/svg" xmlns:xlink="http://www.w3.org/1999/xlink">
 <defs>
  <style type="text/css">
*{stroke-linecap:butt;stroke-linejoin:round;}
  </style>
 </defs>
 <g id="figure_1">
  <g id="patch_1">
   <path d="M 0 345.6 
L 460.8 345.6 
L 460.8 0 
L 0 0 
z
"/>
  </g>
  <g id="axes_1">
   <g id="patch_2">
    <path d="M 57.6 307.584 
L 414.72 307.584 
L 414.72 41.472 
L 57.6 41.472 
z
"/>
   </g>
   <g id="patch_3">
    <path clip-path="url(#p4df2932d66)" d="M 275.906509 50.25007 
L 278.802742 57.962267 
L 279.985632 55.826067 
L 278.333772 53.568142 
L 278.33393 53.567858 
L 279.985789 55.825782 
L 281.168679 53.689582 
z
" style="fill:#ffffff;"/>
   </g>
   <g id="line2d_1">
    <path clip-path="url(#p4df2932d66)" d="M 73.832727 87.676549 
L 74.073034 90.685683 
L 74.793955 91.09722 
L 75.034261 89.386885 
L 75.274568 89.813525 
L 75.514875 90.53466 
L 75.755182 89.870158 
L 76.476103 88.30707 
L 76.716409 88.442991 
L 76.956716 87.642569 
L 77.197023 88.118291 
L 77.43733 87.551955 
L 78.879171 88.420337 
L 79.119478 89.560561 
L 79.840398 90.379861 
L 80.080705 91.886316 
L 80.321012 92.07887 
L 80.561319 92.822658 
L 80.801626 94.151661 
L 81.522546 94.857694 
L 81.762853 94.283806 
L 82.00316 94.487687 
L 82.243467 95.408928 
L 82.483774 95.035146 
L 83.204694 94.44238 
L 83.445001 97.689375 
L 83.685308 99.282668 
L 83.925615 98.723883 
L 84.165922 99.849004 
L 84.886842 100.785347 
L 85.127149 102.035063 
L 85.367456 101.548013 
L 85.607763 102.21629 
L 85.848069 101.793426 
L 86.56899 100.860859 
L 86.809297 101.668832 
L 87.049604 102.990283 
L 87.289911 103.405597 
L 87.530217 104.202243 
L 88.251138 106.108909 
L 88.491445 105.648288 
L 88.731752 102.835485 
L 88.972058 106.191971 
L 89.212365 114.894673 
L 89.933286 120.546709 
L 90.173593 118.432387 
L 90.413899 120.006802 
L 90.654206 122.774299 
L 90.894513 121.769996 
L 91.615434 123.805031 
L 91.855741 123.367064 
L 92.096047 122.15888 
L 92.336354 119.527304 
L 92.576661 113.731796 
L 93.297582 114.93998 
L 93.537888 113.486383 
L 93.778195 113.169235 
L 94.018502 118.893007 
L 94.258809 118.507899 
L 94.979729 119.591489 
L 95.220036 114.936204 
L 95.460343 114.921102 
L 95.70065 113.048416 
L 95.940957 113.750673 
L 96.661877 112.127176 
L 96.902184 113.040865 
L 97.142491 115.774382 
L 97.623105 117.522473 
L 98.584332 118.500347 
L 98.824639 117.737681 
L 99.064946 117.526249 
L 99.305253 117.903806 
L 100.026173 116.352045 
L 100.26648 114.517115 
L 100.506787 113.969657 
L 100.747094 115.27223 
L 100.987401 114.600178 
L 101.708321 114.147109 
L 101.948628 117.258183 
L 102.188935 117.669721 
L 102.429242 116.420005 
L 102.669548 117.782988 
L 103.390469 119.648122 
L 103.630776 119.168624 
L 104.11139 120.735488 
L 105.312924 122.570418 
L 105.553231 122.623276 
L 105.793537 124.397796 
L 106.033844 122.581745 
L 106.754765 126.327115 
L 106.995072 123.227368 
L 107.235379 122.853586 
L 107.475685 120.980901 
L 107.715992 122.981956 
L 108.436913 123.4388 
L 108.67722 122.864913 
L 108.917526 123.559619 
L 109.157833 123.540741 
L 109.39814 125.292608 
L 110.359367 126.776409 
L 110.599674 124.284529 
L 110.839981 123.008385 
L 111.080288 120.87896 
L 112.041515 116.665418 
L 112.281822 121.241415 
L 112.522129 120.803448 
L 112.762436 121.656729 
L 113.483356 123.650232 
L 113.723663 122.245718 
L 113.96397 127.554177 
L 114.204277 129.404209 
L 114.444584 126.950085 
L 115.165504 123.805031 
L 115.405811 124.790456 
L 115.646118 122.1249 
L 115.886425 120.765693 
L 116.126732 120.546709 
L 117.087959 123.502985 
L 117.328266 124.703618 
L 117.568573 124.511064 
L 117.80888 124.529941 
L 118.770107 122.045613 
L 119.010414 123.019711 
L 119.491028 119.969046 
L 120.211948 120.769468 
L 120.452255 120.040782 
L 120.692562 119.708532 
L 120.932869 120.399462 
L 121.173175 119.980373 
L 121.894096 121.079065 
L 122.37471 118.262486 
L 122.615016 117.745232 
L 122.855323 116.922157 
L 123.576244 115.86122 
L 123.816551 117.227978 
L 124.056858 116.09153 
L 124.297164 117.484718 
L 124.537471 117.767886 
L 125.258392 118.085034 
L 125.498699 117.224203 
L 125.979312 117.469615 
L 126.94054 118.288915 
L 127.180847 117.590434 
L 127.421153 117.922684 
L 127.66146 117.945338 
L 127.901767 117.767886 
L 128.622688 119.750063 
L 128.862994 120.988452 
L 129.103301 121.233864 
L 129.343608 122.947975 
L 129.583915 122.302352 
L 130.545142 123.023487 
L 131.025756 122.075817 
L 131.266063 119.640571 
L 131.986983 120.38436 
L 132.22729 122.05694 
L 132.707904 126.897227 
L 132.948211 131.273119 
L 133.669131 134.187864 
L 133.909438 132.383139 
L 134.149745 132.772023 
L 134.390052 132.647429 
L 134.630359 132.855085 
L 135.351279 133.719692 
L 135.831893 136.064325 
L 136.0722 135.490437 
L 136.312507 135.883097 
L 137.033427 135.127982 
L 137.273734 135.800034 
L 137.514041 137.11771 
L 137.754348 136.147387 
L 138.715575 137.027096 
L 138.955882 137.812416 
L 139.196189 140.089088 
L 139.436496 140.096639 
L 139.676802 141.014104 
L 140.397723 146.239501 
L 140.63803 146.447157 
L 140.878337 148.263209 
L 141.118643 147.655341 
L 141.35895 150.222733 
L 142.320178 154.477806 
L 142.560484 158.528999 
L 142.800791 158.491243 
L 143.041098 155.606703 
L 144.002326 160.462093 
L 144.242632 155.342413 
L 144.482939 157.890927 
L 144.723246 156.452432 
L 145.444167 156.546822 
L 145.92478 153.545239 
L 146.405394 155.621806 
L 147.366621 158.46859 
L 147.606928 159.019824 
L 147.847235 159.174622 
L 148.087542 162.021406 
L 148.808462 164.607675 
L 149.048769 163.814805 
L 149.289076 160.31107 
L 149.529383 160.850978 
L 149.76969 159.756061 
L 150.730917 161.439968 
L 150.971224 159.858001 
L 151.211531 161.375783 
L 151.451838 161.636297 
L 152.172758 160.548932 
L 152.413065 159.956166 
L 152.653372 162.629274 
L 152.893679 163.395716 
L 153.133986 163.508983 
L 153.854906 162.886013 
L 154.095213 166.797509 
L 154.575827 168.322842 
L 154.816134 163.965828 
L 155.537054 161.492826 
L 155.777361 161.583439 
L 156.017668 161.900588 
L 156.257975 160.605565 
L 156.498281 158.438385 
L 157.219202 159.891982 
L 157.459509 162.753868 
L 157.699816 162.040284 
L 157.940122 162.202634 
L 158.180429 160.171374 
L 158.90135 159.756061 
L 159.141657 159.876879 
L 159.381964 157.653065 
L 159.62227 157.037647 
L 159.862577 159.178398 
L 160.583498 157.018769 
L 160.823805 157.641739 
L 161.064111 157.434082 
L 161.304418 155.504763 
L 161.544725 155.508538 
L 162.265646 153.246969 
L 162.746259 156.478861 
L 162.986566 156.486412 
L 163.226873 156.860194 
L 163.947794 158.6989 
L 164.428407 157.773884 
L 164.668714 157.868273 
L 164.909021 158.6989 
L 165.870248 158.192973 
L 166.110555 161.122819 
L 166.350862 161.319149 
L 167.312089 166.7371 
L 167.552396 167.469562 
L 167.792703 164.192362 
L 168.03301 164.04889 
L 168.273317 163.135201 
L 168.994237 164.490633 
L 169.474851 167.552624 
L 169.715158 167.352519 
L 169.955465 168.858973 
L 170.916692 168.322842 
L 171.156999 165.325035 
L 171.397306 166.691793 
L 171.637613 169.274287 
L 172.358533 170.112464 
L 172.59884 167.212822 
L 172.839147 167.103331 
L 173.079454 167.873548 
L 173.31976 167.964162 
L 174.040681 167.080677 
L 174.761602 162.093142 
L 175.001908 161.602317 
L 175.722829 164.947477 
L 175.963136 164.298078 
L 176.203443 166.34444 
L 176.443749 164.267874 
L 176.684056 178.124236 
L 177.404977 181.427864 
L 177.645284 180.770914 
L 177.88559 183.99148 
L 178.125897 183.092893 
L 179.327432 193.030208 
L 179.567738 193.143475 
L 180.048352 197.202219 
L 180.769273 198.938983 
L 181.009579 197.002113 
L 181.249886 192.943369 
L 181.490193 197.455182 
L 181.7305 197.190892 
L 182.45142 199.671445 
L 182.691727 198.09703 
L 183.172341 202.118018 
L 183.412648 200.894731 
L 184.133568 204.349383 
L 184.614182 209.44641 
L 185.094796 211.621141 
L 185.815716 209.680496 
L 186.056023 202.151998 
L 186.29633 202.669252 
L 186.536637 206.13523 
L 186.776944 207.498213 
L 187.497864 203.024156 
L 187.738171 202.529556 
L 187.978478 202.408737 
L 188.218785 204.836432 
L 188.459092 204.288974 
L 189.180012 205.576445 
L 189.420319 207.418926 
L 189.660626 207.973936 
L 189.900933 209.329367 
L 190.141239 212.198805 
L 190.86216 210.10336 
L 191.102467 212.044006 
L 191.342774 210.756535 
L 191.583081 212.912388 
L 191.823387 212.493299 
L 192.784615 210.118462 
L 193.024922 210.892455 
L 193.505535 206.42595 
L 194.466763 214.116797 
L 195.187683 225.605873 
L 195.908604 226.074044 
L 196.389217 227.859892 
L 196.629524 224.839431 
L 196.869831 225.828632 
L 197.831058 226.153332 
L 198.071365 217.771554 
L 198.311672 214.577417 
L 198.551979 200.611563 
L 199.2729 211.198277 
L 199.513206 217.061746 
L 199.753513 213.274844 
L 199.99382 213.754342 
L 200.234127 213.459847 
L 200.955047 210.941538 
L 201.195354 213.146474 
L 201.435661 201.487497 
L 201.675968 199.320317 
L 201.916275 193.849508 
L 202.637195 195.189837 
L 202.877502 188.703398 
L 203.117809 189.141365 
L 203.358116 185.248747 
L 203.598423 186.698568 
L 204.319343 180.314069 
L 204.55965 179.415482 
L 204.799957 179.060578 
L 205.040264 188.152164 
L 205.280571 189.016771 
L 206.241798 188.201247 
L 206.482105 187.785933 
L 206.722412 192.535607 
L 206.962719 192.282644 
L 207.683639 197.183341 
L 207.923946 186.702343 
L 208.164253 187.525419 
L 208.40456 191.923964 
L 208.644866 192.577139 
L 209.606094 187.393274 
L 210.327014 177.218098 
L 211.047935 177.051972 
L 211.288242 182.375534 
L 211.768855 177.697596 
L 212.009162 178.082704 
L 212.730083 181.254188 
L 212.97039 178.131787 
L 213.210696 178.245054 
L 213.451003 178.875575 
L 213.69131 187.902976 
L 214.412231 189.371675 
L 214.652538 192.207132 
L 214.892844 198.920106 
L 215.133151 196.450879 
L 215.373458 197.039869 
L 216.094379 196.926602 
L 216.334685 202.454044 
L 216.815299 205.036538 
L 217.055606 203.141199 
L 217.776526 206.999837 
L 218.016833 204.46265 
L 218.25714 204.194584 
L 218.497447 201.630969 
L 219.458674 203.390387 
L 219.698981 202.416288 
L 220.179595 206.478808 
L 220.419902 214.822829 
L 221.140822 216.106525 
L 221.381129 211.069907 
L 221.621436 210.620614 
L 221.861743 208.377922 
L 222.10205 207.588827 
L 223.063277 198.852145 
L 223.303584 198.614284 
L 223.543891 198.833267 
L 223.784198 198.663366 
L 224.505118 198.844594 
L 224.745425 204.137951 
L 224.985732 201.940566 
L 225.466345 191.048031 
L 226.187266 191.829575 
L 226.427573 189.979543 
L 226.66788 191.187727 
L 226.908187 189.8625 
L 227.148493 189.496269 
L 227.869414 189.847398 
L 228.590334 194.39319 
L 228.830641 193.773996 
L 229.791869 190.22118 
L 230.032175 190.175873 
L 230.272482 194.253494 
L 230.512789 193.052861 
L 231.23371 191.165073 
L 231.474017 197.036093 
L 231.714323 195.722193 
L 231.95463 198.285809 
L 232.194937 195.744847 
L 232.915858 193.845732 
L 233.156164 195.725969 
L 233.396471 194.921771 
L 233.636778 197.417426 
L 233.877085 197.304159 
L 234.838312 195.971381 
L 235.078619 201.619642 
L 235.318926 200.796567 
L 235.559233 202.650374 
L 236.280153 202.408737 
L 236.52046 201.691378 
L 236.760767 203.122321 
L 237.001074 207.539744 
L 237.962301 209.57478 
L 238.442915 208.917829 
L 238.683222 209.571004 
L 238.923529 208.536496 
L 239.644449 207.686992 
L 239.884756 210.088258 
L 240.605677 202.136896 
L 241.326597 203.794373 
L 241.807211 200.437887 
L 242.047518 195.952503 
L 242.287825 197.0814 
L 243.008745 197.379671 
L 243.249052 196.798232 
L 243.729666 194.170432 
L 243.969972 196.330061 
L 244.690893 195.756173 
L 245.171507 188.442883 
L 245.411813 191.523753 
L 245.65212 190.942314 
L 246.373041 192.4903 
L 246.613348 193.641851 
L 247.334268 188.922382 
L 248.055189 189.27351 
L 248.535802 196.179038 
L 249.737337 192.244888 
L 249.977643 192.61867 
L 250.21795 190.78374 
L 250.458257 190.897008 
L 250.698564 190.719556 
L 251.419485 193.622973 
L 251.659791 192.867858 
L 251.900098 193.547462 
L 252.140405 192.709284 
L 252.380712 192.735713 
L 253.341939 194.910444 
L 253.582246 193.317151 
L 253.822553 192.694182 
L 254.06286 192.452545 
L 254.78378 194.808504 
L 255.024087 197.757228 
L 255.264394 203.295998 
L 255.504701 202.318123 
L 255.745008 204.545713 
L 256.465928 206.361765 
L 256.946542 199.682772 
L 257.186849 203.401714 
L 257.427156 202.242612 
L 258.148076 202.318123 
L 258.388383 203.409265 
L 258.62869 201.917912 
L 258.868997 202.1671 
L 259.109304 201.532804 
L 259.830224 201.359127 
L 260.070531 202.340777 
L 260.310838 206.743098 
L 260.551145 205.274399 
L 260.791451 208.555374 
L 261.512372 211.764613 
L 261.752679 210.877353 
L 261.992986 210.820719 
L 262.233293 211.175624 
L 262.473599 211.122766 
L 263.434827 208.608232 
L 263.675134 208.106081 
L 263.91544 210.654594 
L 264.155747 223.344303 
L 264.876668 231.314543 
L 265.116975 228.494188 
L 265.357281 233.511928 
L 265.597588 232.945592 
L 265.837895 229.207772 
L 266.558816 229.725026 
L 266.799123 229.657066 
L 267.039429 226.300579 
L 267.520043 227.924076 
L 268.240964 229.868498 
L 268.48127 228.214796 
L 268.721577 229.132261 
L 268.961884 228.237449 
L 269.202191 228.584802 
L 269.923111 231.408933 
L 270.163418 234.531334 
L 270.403725 235.52431 
L 270.884339 238.114355 
L 271.605259 236.70229 
L 271.845566 242.21463 
L 272.566487 240.458987 
L 273.287407 232.813447 
L 273.527714 234.606845 
L 273.768021 232.775691 
L 274.008328 232.8361 
L 274.248635 231.322094 
L 274.969555 232.851202 
L 275.450169 234.308575 
L 275.690476 232.0168 
L 275.930783 232.57181 
L 276.651703 232.50385 
L 277.132317 230.638715 
L 277.372624 231.82047 
L 277.61293 231.133316 
L 278.333851 224.526059 
L 278.574158 226.727219 
L 279.054772 222.034179 
L 279.295078 221.800093 
L 280.256306 222.53633 
L 280.496613 226.500685 
L 280.736919 224.435445 
L 280.977226 223.650125 
L 282.178761 226.334559 
L 282.419067 232.250886 
L 282.659374 233.734687 
L 283.380295 232.371704 
L 283.620602 233.096615 
L 283.860908 234.591743 
L 284.101215 238.465483 
L 284.341522 240.458987 
L 285.302749 240.187146 
L 285.783363 233.976324 
L 286.02367 234.701234 
L 286.984897 230.661369 
L 287.225204 238.220071 
L 287.465511 234.074489 
L 287.705818 237.00056 
L 288.426738 235.728191 
L 288.667045 236.426672 
L 288.907352 239.137536 
L 289.147659 231.680774 
L 289.387966 231.586385 
L 290.108886 226.172209 
L 290.349193 227.803258 
L 290.5895 227.248248 
L 290.829807 227.633357 
L 291.070114 224.182481 
L 291.791034 222.823274 
L 292.031341 223.129096 
L 292.271648 225.707814 
L 292.511955 224.023907 
L 292.752262 227.221819 
L 293.713489 228.037344 
L 293.953796 229.45696 
L 294.194103 229.453185 
L 294.43441 227.478559 
L 295.15533 225.330256 
L 295.395637 219.228926 
L 295.635944 219.485665 
L 295.876251 219.025045 
L 296.116557 215.41937 
L 296.837478 216.276426 
L 297.077785 222.543881 
L 297.318092 221.822746 
L 297.558398 221.475394 
L 297.798705 220.810892 
L 298.519626 221.48672 
L 298.759933 217.061746 
L 299.00024 218.938207 
L 299.240546 218.254828 
L 299.480853 216.23867 
L 300.201774 218.647487 
L 300.442081 217.91125 
L 300.682387 222.166324 
L 300.922694 224.239115 
L 301.163001 224.159828 
L 301.883922 225.356685 
L 302.604842 223.81625 
L 302.845149 222.774191 
L 303.56607 222.913888 
L 303.806376 228.226123 
L 304.046683 227.629582 
L 304.28699 227.814585 
L 305.248217 226.568645 
L 305.728831 225.179233 
L 305.969138 226.259048 
L 306.209445 225.843734 
L 306.930365 228.856644 
L 307.170672 228.301634 
L 307.410979 229.513594 
L 307.651286 227.867443 
L 307.891593 231.956391 
L 308.85282 230.087481 
L 309.093127 230.261158 
L 309.333434 231.465566 
L 309.573741 230.646266 
L 310.775275 225.65118 
L 311.015582 228.463984 
L 311.255889 227.667337 
L 311.976809 226.213741 
L 312.217116 226.040064 
L 312.457423 226.961305 
L 312.69773 224.023907 
L 312.938036 226.013635 
L 313.658957 224.14095 
L 313.899264 222.713782 
L 314.139571 228.229898 
L 314.379878 227.606928 
L 314.620184 227.365291 
L 315.341105 227.471007 
L 315.581412 229.45696 
L 315.821719 228.743376 
L 316.062025 228.879297 
L 316.302332 232.349051 
L 317.26356 233.704483 
L 317.503866 238.042619 
L 317.744173 237.782104 
L 318.705401 241.240531 
L 318.945708 245.684384 
L 319.186014 245.461625 
L 319.426321 244.257216 
L 319.666628 244.419566 
L 320.387549 242.852702 
L 320.627855 240.372149 
L 320.868162 240.549601 
L 321.108469 239.643463 
L 322.069697 244.310074 
L 322.310003 243.974048 
L 322.55031 242.335448 
L 322.790617 243.898536 
L 323.030924 248.002587 
L 323.751844 248.923827 
L 323.992151 249.996091 
L 324.232458 248.497187 
L 324.472765 248.013914 
L 324.713072 247.141756 
L 325.433992 250.041398 
L 326.154913 254.28892 
L 326.39522 253.446967 
L 327.837061 255.685883 
L 328.077368 258.264601 
L 328.798288 258.577974 
L 329.038595 259.336865 
L 329.278902 257.260298 
L 329.519209 256.916721 
L 329.759516 246.167657 
L 330.480436 243.294444 
L 330.720743 243.857005 
L 330.96105 242.256161 
L 331.201357 241.59166 
L 331.441663 243.060359 
L 332.162584 244.653652 
L 332.402891 242.346775 
L 332.643198 243.456794 
L 332.883504 242.728108 
L 333.123811 239.703872 
L 333.844732 242.346775 
L 334.085039 244.619671 
L 334.325346 248.304633 
L 334.565652 244.132622 
L 334.805959 244.517731 
L 335.52688 244.423341 
L 335.767187 241.818194 
L 336.2478 235.369511 
L 336.488107 238.586302 
L 337.209028 237.78588 
L 337.689641 243.385058 
L 337.929948 243.173626 
L 338.170255 244.234563 
L 338.891176 243.577612 
L 339.131482 240.987568 
L 339.371789 243.434141 
L 339.612096 242.875355 
L 339.852403 244.328952 
L 341.053937 249.067299 
L 341.534551 245.876938 
L 342.255471 244.038233 
L 342.495778 246.624502 
L 342.736085 247.122878 
L 342.976392 247.927075 
L 343.216699 249.425979 
L 343.937619 248.123405 
L 344.65854 258.517565 
L 344.898847 261.262408 
L 345.619767 264.252664 
L 345.860074 264.62267 
L 346.340688 264.056334 
L 346.580995 263.969496 
L 347.301915 269.738575 
L 347.542222 270.433281 
L 347.782529 270.293585 
L 348.022836 268.409573 
L 348.263142 274.080487 
L 349.22437 282.058278 
L 349.464677 285.913141 
L 349.704984 284.63322 
L 349.94529 290.443831 
L 350.906518 282.367875 
L 351.146825 288.967581 
L 351.627438 293.207552 
L 352.348359 295.488 
L 352.348359 295.488 
" style="fill:none;stroke:#ffffff;stroke-linecap:square;stroke-width:1.5;"/>
   </g>
   <g id="line2d_2">
    <path clip-path="url(#p4df2932d66)" d="M 352.588666 295.204832 
L 353.052288 293.870032 
L 353.51591 292.535233 
L 353.979533 291.200434 
L 354.443155 289.865634 
L 354.906777 288.530835 
L 355.370399 287.196035 
L 355.834022 285.861236 
L 356.297644 284.526436 
L 356.761266 283.191637 
L 357.224889 281.856838 
L 357.688511 280.522038 
L 358.152133 279.187239 
L 358.615755 277.852439 
L 359.079378 276.51764 
L 359.543 275.182841 
L 360.006622 273.848041 
L 360.470245 272.513242 
L 360.933867 271.178442 
L 361.397489 269.843643 
L 361.861112 268.508843 
L 362.324734 267.174044 
L 362.788356 265.839245 
L 363.251978 264.504445 
L 363.715601 263.169646 
L 364.179223 261.834846 
L 364.642845 260.500047 
L 365.106468 259.165248 
L 365.57009 257.830448 
L 366.033712 256.495649 
L 366.497334 255.160849 
L 366.960957 253.82605 
L 367.424579 252.49125 
L 367.888201 251.156451 
L 368.351824 249.821652 
L 368.815446 248.486852 
L 369.279068 247.152053 
L 369.742691 245.817253 
L 370.206313 244.482454 
L 370.669935 243.147655 
L 371.133557 241.812855 
L 371.59718 240.478056 
L 372.060802 239.143256 
L 372.524424 237.808457 
L 372.988047 236.473657 
L 373.451669 235.138858 
L 373.915291 233.804059 
L 374.378913 232.469259 
L 374.842536 231.13446 
L 375.306158 229.79966 
L 375.76978 228.464861 
L 376.233403 227.130062 
L 376.697025 225.795262 
L 377.160647 224.460463 
L 377.62427 223.125663 
L 378.087892 221.790864 
L 378.551514 220.456064 
L 379.015136 219.121265 
L 379.478759 217.786466 
L 379.942381 216.451666 
L 380.406003 215.116867 
L 380.869626 213.782067 
L 381.333248 212.447268 
L 381.79687 211.112468 
L 382.260492 209.777669 
L 382.724115 208.44287 
L 383.187737 207.10807 
L 383.651359 205.773271 
L 384.114982 204.438471 
L 384.578604 203.103672 
L 385.042226 201.768873 
L 385.505848 200.434073 
L 385.969471 199.099274 
L 386.433093 197.764474 
L 386.896715 196.429675 
L 387.360338 195.094875 
L 387.82396 193.760076 
L 388.287582 192.425277 
L 388.751205 191.090477 
L 389.214827 189.755678 
L 389.678449 188.420878 
L 390.142071 187.086079 
L 390.605694 185.75128 
L 391.069316 184.41648 
L 391.532938 183.081681 
L 391.996561 181.746881 
L 392.460183 180.412082 
L 392.923805 179.077282 
L 393.387427 177.742483 
L 393.85105 176.407684 
L 394.314672 175.072884 
L 394.778294 173.738085 
L 395.241917 172.403285 
L 395.705539 171.068486 
L 396.169161 169.733687 
L 396.632784 168.398887 
L 397.096406 167.064088 
L 397.560028 165.729288 
L 398.02365 164.394489 
L 398.487273 163.059689 
" style="fill:none;stroke:#ffffff;stroke-linecap:square;stroke-width:1.5;"/>
   </g>
   <g id="line2d_3">
    <path clip-path="url(#p4df2932d66)" d="M 278.333851 53.568 
L 279.547522 54.673977 
L 280.761193 55.779953 
L 281.974864 56.88593 
L 283.188535 57.991907 
L 284.402206 59.097883 
L 285.615877 60.20386 
L 286.829548 61.309837 
L 288.043218 62.415813 
L 289.256889 63.52179 
L 290.47056 64.627767 
L 291.684231 65.733743 
L 292.897902 66.83972 
L 294.111573 67.945697 
L 295.325244 69.051673 
L 296.538915 70.15765 
L 297.752586 71.263627 
L 298.966257 72.369603 
L 300.179928 73.47558 
L 301.393599 74.581557 
L 302.60727 75.687533 
L 303.82094 76.79351 
L 305.034611 77.899487 
L 306.248282 79.005463 
L 307.461953 80.11144 
L 308.675624 81.217417 
L 309.889295 82.323393 
L 311.102966 83.42937 
L 312.316637 84.535347 
L 313.530308 85.641323 
L 314.743979 86.7473 
L 315.95765 87.853276 
L 317.171321 88.959253 
L 318.384992 90.06523 
L 319.598663 91.171206 
L 320.812333 92.277183 
L 322.026004 93.38316 
L 323.239675 94.489136 
L 324.453346 95.595113 
L 325.667017 96.70109 
L 326.880688 97.807066 
L 328.094359 98.913043 
L 329.30803 100.01902 
L 330.521701 101.124996 
L 331.735372 102.230973 
L 332.949043 103.33695 
L 334.162714 104.442926 
L 335.376385 105.548903 
L 336.590055 106.65488 
L 337.803726 107.760856 
L 339.017397 108.866833 
L 340.231068 109.97281 
L 341.444739 111.078786 
L 342.65841 112.184763 
L 343.872081 113.29074 
L 345.085752 114.396716 
L 346.299423 115.502693 
L 347.513094 116.60867 
L 348.726765 117.714646 
L 349.940436 118.820623 
L 351.154107 119.9266 
L 352.367778 121.032576 
L 353.581448 122.138553 
L 354.795119 123.24453 
L 356.00879 124.350506 
L 357.222461 125.456483 
L 358.436132 126.56246 
L 359.649803 127.668436 
L 360.863474 128.774413 
L 362.077145 129.88039 
L 363.290816 130.986366 
L 364.504487 132.092343 
L 365.718158 133.19832 
L 366.931829 134.304296 
L 368.1455 135.410273 
L 369.35917 136.51625 
L 370.572841 137.622226 
L 371.786512 138.728203 
L 373.000183 139.83418 
L 374.213854 140.940156 
L 375.427525 142.046133 
L 376.641196 143.15211 
L 377.854867 144.258086 
L 379.068538 145.364063 
L 380.282209 146.47004 
L 381.49588 147.576016 
L 382.709551 148.681993 
L 383.923222 149.787969 
L 385.136893 150.893946 
L 386.350563 151.999923 
L 387.564234 153.105899 
L 388.777905 154.211876 
L 389.991576 155.317853 
L 391.205247 156.423829 
L 392.418918 157.529806 
L 393.632589 158.635783 
L 394.84626 159.741759 
L 396.059931 160.847736 
L 397.273602 161.953713 
L 398.487273 163.059689 
" style="fill:none;stroke:#ffffff;stroke-linecap:square;stroke-width:1.5;"/>
   </g>
   <g id="mpl_toolkits.axisartist.axis_artist_1">
    <g id="patch_4">
     <path d="M 57.6 307.584 
L 414.72 307.584 
L 423.601966 307.584 
" style="fill:none;stroke:#ffffff;stroke-linecap:round;"/>
     <path d="M 419.601966 305.584 
L 423.601966 307.584 
L 419.601966 309.584 
L 419.601966 305.584 
z
" style="fill:#8dd3c7;stroke:#ffffff;stroke-linecap:round;"/>
    </g>
    <g id="text_1">
     <!-- time -->
     <defs>
      <path d="M 18.3125 70.21875 
L 18.3125 54.6875 
L 36.8125 54.6875 
L 36.8125 47.703125 
L 18.3125 47.703125 
L 18.3125 18.015625 
Q 18.3125 11.328125 20.140625 9.421875 
Q 21.96875 7.515625 27.59375 7.515625 
L 36.8125 7.515625 
L 36.8125 0 
L 27.59375 0 
Q 17.1875 0 13.234375 3.875 
Q 9.28125 7.765625 9.28125 18.015625 
L 9.28125 47.703125 
L 2.6875 47.703125 
L 2.6875 54.6875 
L 9.28125 54.6875 
L 9.28125 70.21875 
z
" id="DejaVuSans-116"/>
      <path d="M 9.421875 54.6875 
L 18.40625 54.6875 
L 18.40625 0 
L 9.421875 0 
z
M 9.421875 75.984375 
L 18.40625 75.984375 
L 18.40625 64.59375 
L 9.421875 64.59375 
z
" id="DejaVuSans-105"/>
      <path d="M 52 44.1875 
Q 55.375 50.25 60.0625 53.125 
Q 64.75 56 71.09375 56 
Q 79.640625 56 84.28125 50.015625 
Q 88.921875 44.046875 88.921875 33.015625 
L 88.921875 0 
L 79.890625 0 
L 79.890625 32.71875 
Q 79.890625 40.578125 77.09375 44.375 
Q 74.3125 48.1875 68.609375 48.1875 
Q 61.625 48.1875 57.5625 43.546875 
Q 53.515625 38.921875 53.515625 30.90625 
L 53.515625 0 
L 44.484375 0 
L 44.484375 32.71875 
Q 44.484375 40.625 41.703125 44.40625 
Q 38.921875 48.1875 33.109375 48.1875 
Q 26.21875 48.1875 22.15625 43.53125 
Q 18.109375 38.875 18.109375 30.90625 
L 18.109375 0 
L 9.078125 0 
L 9.078125 54.6875 
L 18.109375 54.6875 
L 18.109375 46.1875 
Q 21.1875 51.21875 25.484375 53.609375 
Q 29.78125 56 35.6875 56 
Q 41.65625 56 45.828125 52.96875 
Q 50 49.953125 52 44.1875 
z
" id="DejaVuSans-109"/>
      <path d="M 56.203125 29.59375 
L 56.203125 25.203125 
L 14.890625 25.203125 
Q 15.484375 15.921875 20.484375 11.0625 
Q 25.484375 6.203125 34.421875 6.203125 
Q 39.59375 6.203125 44.453125 7.46875 
Q 49.3125 8.734375 54.109375 11.28125 
L 54.109375 2.78125 
Q 49.265625 0.734375 44.1875 -0.34375 
Q 39.109375 -1.421875 33.890625 -1.421875 
Q 20.796875 -1.421875 13.15625 6.1875 
Q 5.515625 13.8125 5.515625 26.8125 
Q 5.515625 40.234375 12.765625 48.109375 
Q 20.015625 56 32.328125 56 
Q 43.359375 56 49.78125 48.890625 
Q 56.203125 41.796875 56.203125 29.59375 
z
M 47.21875 32.234375 
Q 47.125 39.59375 43.09375 43.984375 
Q 39.0625 48.390625 32.421875 48.390625 
Q 24.90625 48.390625 20.390625 44.140625 
Q 15.875 39.890625 15.1875 32.171875 
z
" id="DejaVuSans-101"/>
     </defs>
     <g style="fill:#ffffff;" transform="translate(224.863906 323.682437)scale(0.1 -0.1)">
      <use xlink:href="#DejaVuSans-116"/>
      <use x="39.208984" xlink:href="#DejaVuSans-105"/>
      <use x="66.992188" xlink:href="#DejaVuSans-109"/>
      <use x="164.404297" xlink:href="#DejaVuSans-101"/>
     </g>
    </g>
   </g>
   <g id="mpl_toolkits.axisartist.axis_artist_2">
    <g id="patch_5">
     <path d="M 57.6 307.584 
L 57.6 41.472 
L 57.6 32.590034 
" style="fill:none;stroke:#ffffff;stroke-linecap:round;"/>
     <path d="M 55.6 36.590034 
L 57.6 32.590034 
L 59.6 36.590034 
L 55.6 36.590034 
z
" style="fill:#8dd3c7;stroke:#ffffff;stroke-linecap:round;"/>
    </g>
    <g id="text_2">
     <!-- profits -->
     <defs>
      <path d="M 18.109375 8.203125 
L 18.109375 -20.796875 
L 9.078125 -20.796875 
L 9.078125 54.6875 
L 18.109375 54.6875 
L 18.109375 46.390625 
Q 20.953125 51.265625 25.265625 53.625 
Q 29.59375 56 35.59375 56 
Q 45.5625 56 51.78125 48.09375 
Q 58.015625 40.1875 58.015625 27.296875 
Q 58.015625 14.40625 51.78125 6.484375 
Q 45.5625 -1.421875 35.59375 -1.421875 
Q 29.59375 -1.421875 25.265625 0.953125 
Q 20.953125 3.328125 18.109375 8.203125 
z
M 48.6875 27.296875 
Q 48.6875 37.203125 44.609375 42.84375 
Q 40.53125 48.484375 33.40625 48.484375 
Q 26.265625 48.484375 22.1875 42.84375 
Q 18.109375 37.203125 18.109375 27.296875 
Q 18.109375 17.390625 22.1875 11.75 
Q 26.265625 6.109375 33.40625 6.109375 
Q 40.53125 6.109375 44.609375 11.75 
Q 48.6875 17.390625 48.6875 27.296875 
z
" id="DejaVuSans-112"/>
      <path d="M 41.109375 46.296875 
Q 39.59375 47.171875 37.8125 47.578125 
Q 36.03125 48 33.890625 48 
Q 26.265625 48 22.1875 43.046875 
Q 18.109375 38.09375 18.109375 28.8125 
L 18.109375 0 
L 9.078125 0 
L 9.078125 54.6875 
L 18.109375 54.6875 
L 18.109375 46.1875 
Q 20.953125 51.171875 25.484375 53.578125 
Q 30.03125 56 36.53125 56 
Q 37.453125 56 38.578125 55.875 
Q 39.703125 55.765625 41.0625 55.515625 
z
" id="DejaVuSans-114"/>
      <path d="M 30.609375 48.390625 
Q 23.390625 48.390625 19.1875 42.75 
Q 14.984375 37.109375 14.984375 27.296875 
Q 14.984375 17.484375 19.15625 11.84375 
Q 23.34375 6.203125 30.609375 6.203125 
Q 37.796875 6.203125 41.984375 11.859375 
Q 46.1875 17.53125 46.1875 27.296875 
Q 46.1875 37.015625 41.984375 42.703125 
Q 37.796875 48.390625 30.609375 48.390625 
z
M 30.609375 56 
Q 42.328125 56 49.015625 48.375 
Q 55.71875 40.765625 55.71875 27.296875 
Q 55.71875 13.875 49.015625 6.21875 
Q 42.328125 -1.421875 30.609375 -1.421875 
Q 18.84375 -1.421875 12.171875 6.21875 
Q 5.515625 13.875 5.515625 27.296875 
Q 5.515625 40.765625 12.171875 48.375 
Q 18.84375 56 30.609375 56 
z
" id="DejaVuSans-111"/>
      <path d="M 37.109375 75.984375 
L 37.109375 68.5 
L 28.515625 68.5 
Q 23.6875 68.5 21.796875 66.546875 
Q 19.921875 64.59375 19.921875 59.515625 
L 19.921875 54.6875 
L 34.71875 54.6875 
L 34.71875 47.703125 
L 19.921875 47.703125 
L 19.921875 0 
L 10.890625 0 
L 10.890625 47.703125 
L 2.296875 47.703125 
L 2.296875 54.6875 
L 10.890625 54.6875 
L 10.890625 58.5 
Q 10.890625 67.625 15.140625 71.796875 
Q 19.390625 75.984375 28.609375 75.984375 
z
" id="DejaVuSans-102"/>
      <path d="M 44.28125 53.078125 
L 44.28125 44.578125 
Q 40.484375 46.53125 36.375 47.5 
Q 32.28125 48.484375 27.875 48.484375 
Q 21.1875 48.484375 17.84375 46.4375 
Q 14.5 44.390625 14.5 40.28125 
Q 14.5 37.15625 16.890625 35.375 
Q 19.28125 33.59375 26.515625 31.984375 
L 29.59375 31.296875 
Q 39.15625 29.25 43.1875 25.515625 
Q 47.21875 21.78125 47.21875 15.09375 
Q 47.21875 7.46875 41.1875 3.015625 
Q 35.15625 -1.421875 24.609375 -1.421875 
Q 20.21875 -1.421875 15.453125 -0.5625 
Q 10.6875 0.296875 5.421875 2 
L 5.421875 11.28125 
Q 10.40625 8.6875 15.234375 7.390625 
Q 20.0625 6.109375 24.8125 6.109375 
Q 31.15625 6.109375 34.5625 8.28125 
Q 37.984375 10.453125 37.984375 14.40625 
Q 37.984375 18.0625 35.515625 20.015625 
Q 33.0625 21.96875 24.703125 23.78125 
L 21.578125 24.515625 
Q 13.234375 26.265625 9.515625 29.90625 
Q 5.8125 33.546875 5.8125 39.890625 
Q 5.8125 47.609375 11.28125 51.796875 
Q 16.75 56 26.8125 56 
Q 31.78125 56 36.171875 55.265625 
Q 40.578125 54.546875 44.28125 53.078125 
z
" id="DejaVuSans-115"/>
     </defs>
     <g style="fill:#ffffff;" transform="translate(47.020313 190.529562)rotate(-90)scale(0.1 -0.1)">
      <use xlink:href="#DejaVuSans-112"/>
      <use x="63.476562" xlink:href="#DejaVuSans-114"/>
      <use x="104.558594" xlink:href="#DejaVuSans-111"/>
      <use x="165.740234" xlink:href="#DejaVuSans-102"/>
      <use x="200.945312" xlink:href="#DejaVuSans-105"/>
      <use x="228.728516" xlink:href="#DejaVuSans-116"/>
      <use x="267.9375" xlink:href="#DejaVuSans-115"/>
     </g>
    </g>
   </g>
  </g>
 </g>
 <defs>
  <clipPath id="p4df2932d66">
   <rect height="266.112" width="357.12" x="57.6" y="41.472"/>
  </clipPath>
 </defs>
</svg>
